<svg xmlns="http://www.w3.org/2000/svg" viewBox="0 0 1000 1000" width="1000" height="1000" role="img" aria-label="Lotus Chakra rotating chakra"><defs>
 <radialGradient id="plate" gradientUnits="userSpaceOnUse" cx="500" cy="430" r="620">
  <stop offset="0" stop-color="#48300F"/><stop offset=".62" stop-color="#241704"/>
  <stop offset="1" stop-color="#0D0702"/></radialGradient>
 <radialGradient id="gold" gradientUnits="userSpaceOnUse" cx="500" cy="405" r="600">
  <stop offset="0" stop-color="#FFEDBA"/><stop offset=".45" stop-color="#EEC478"/>
  <stop offset=".78" stop-color="#BC8E3C"/><stop offset="1" stop-color="#77531D"/></radialGradient>
 <radialGradient id="goldHi" gradientUnits="userSpaceOnUse" cx="500" cy="380" r="560">
  <stop offset="0" stop-color="#FFEDBA"/><stop offset=".55" stop-color="#FFEDBA"/>
  <stop offset="1" stop-color="#BC8E3C"/></radialGradient>
 <radialGradient id="accent" gradientUnits="userSpaceOnUse" cx="500" cy="420" r="600">
  <stop offset="0" stop-color="#5B3C18"/><stop offset="1" stop-color="#241505"/></radialGradient>
 <linearGradient id="wood" x1=".1" y1="0" x2=".72" y2="1">
  <stop offset="0" stop-color="#6E4E2C"/><stop offset=".38" stop-color="#4B3118"/>
  <stop offset=".74" stop-color="#33200E"/><stop offset="1" stop-color="#1F1308"/></linearGradient>
 <radialGradient id="lamp" cx="50%" cy="50%" r="50%">
  <stop offset="0" stop-color="#fffdf2" stop-opacity=".95"/>
  <stop offset=".35" stop-color="#FFC864" stop-opacity=".8"/>
  <stop offset="1" stop-color="#FFC864" stop-opacity="0"/></radialGradient>
 <radialGradient id="halo" cx="50%" cy="50%" r="50%">
  <stop offset=".55" stop-color="#FFC864" stop-opacity="0"/>
  <stop offset=".82" stop-color="#FFC864" stop-opacity=".34"/>
  <stop offset=".96" stop-color="#FFC864" stop-opacity=".09"/>
  <stop offset="1" stop-color="#FFC864" stop-opacity="0"/></radialGradient>
 <filter id="bevel" x="-12%" y="-12%" width="124%" height="124%">
  <feGaussianBlur in="SourceAlpha" stdDeviation="2.4" result="b"/>
  <feSpecularLighting in="b" surfaceScale="4.5" specularConstant=".62" specularExponent="17"
   lighting-color="#fff6df" result="s"><fePointLight x="-2200" y="-3600" z="4200"/></feSpecularLighting>
  <feComposite in="s" in2="SourceAlpha" operator="in" result="so"/>
  <feComposite in="SourceGraphic" in2="so" operator="arithmetic" k1="0" k2="1" k3=".9" k4="0"/></filter>
 <filter id="soft" x="-40%" y="-40%" width="180%" height="180%">
  <feGaussianBlur stdDeviation="11"/></filter>
</defs><circle cx="500" cy="500" r="498" fill="url(#halo)"/><circle cx="500" cy="500" r="492" fill="url(#plate)"/><circle cx="500" cy="500" r="486" fill="none" stroke="#77531D" stroke-width="7" /><path d="M 500 80 C 481.37 58.79 491.79 36.81 500 20 C 508.21 36.81 518.63 58.79 500 80 Z" fill="url(#gold)" stroke="#77531D" stroke-width="1" stroke-linejoin="round" /><path d="M 565.7 85.17 C 550.62 61.31 564.35 41.23 575.09 25.91 C 580.57 43.8 587.42 67.14 565.7 85.17 Z" fill="url(#gold)" stroke="#77531D" stroke-width="1" stroke-linejoin="round" /><path d="M 629.79 100.56 C 618.62 74.63 635.32 56.95 648.33 43.49 C 650.94 62.02 654.06 86.14 629.79 100.56 Z" fill="url(#gold)" stroke="#77531D" stroke-width="1" stroke-linejoin="round" /><path d="M 690.68 125.78 C 683.71 98.42 702.97 83.57 717.92 72.32 C 717.6 91.02 716.9 115.34 690.68 125.78 Z" fill="url(#gold)" stroke="#77531D" stroke-width="1" stroke-linejoin="round" /><path d="M 746.87 160.21 C 744.26 132.11 765.61 120.45 782.14 111.67 C 778.9 130.1 774.41 154.01 746.87 160.21 Z" fill="url(#gold)" stroke="#77531D" stroke-width="1" stroke-linejoin="round" /><path d="M 796.98 203.02 C 798.81 174.85 821.72 166.67 839.41 160.59 C 833.33 178.28 825.15 201.19 796.98 203.02 Z" fill="url(#gold)" stroke="#77531D" stroke-width="1" stroke-linejoin="round" /><path d="M 839.79 253.13 C 845.99 225.59 869.9 221.1 888.33 217.86 C 879.55 234.39 867.89 255.74 839.79 253.13 Z" fill="url(#gold)" stroke="#77531D" stroke-width="1" stroke-linejoin="round" /><path d="M 874.22 309.32 C 884.66 283.1 908.98 282.4 927.68 282.08 C 916.43 297.03 901.58 316.29 874.22 309.32 Z" fill="url(#gold)" stroke="#77531D" stroke-width="1" stroke-linejoin="round" /><path d="M 899.44 370.21 C 913.86 345.94 937.98 349.06 956.51 351.67 C 943.05 364.68 925.37 381.38 899.44 370.21 Z" fill="url(#gold)" stroke="#77531D" stroke-width="1" stroke-linejoin="round" /><path d="M 914.83 434.3 C 932.86 412.58 956.2 419.43 974.09 424.91 C 958.77 435.65 938.69 449.38 914.83 434.3 Z" fill="url(#gold)" stroke="#77531D" stroke-width="1" stroke-linejoin="round" /><path d="M 920 500 C 941.21 481.37 963.19 491.79 980 500 C 963.19 508.21 941.21 518.63 920 500 Z" fill="url(#gold)" stroke="#77531D" stroke-width="1" stroke-linejoin="round" /><path d="M 914.83 565.7 C 938.69 550.62 958.77 564.35 974.09 575.09 C 956.2 580.57 932.86 587.42 914.83 565.7 Z" fill="url(#gold)" stroke="#77531D" stroke-width="1" stroke-linejoin="round" /><path d="M 899.44 629.79 C 925.37 618.62 943.05 635.32 956.51 648.33 C 937.98 650.94 913.86 654.06 899.44 629.79 Z" fill="url(#gold)" stroke="#77531D" stroke-width="1" stroke-linejoin="round" /><path d="M 874.22 690.68 C 901.58 683.71 916.43 702.97 927.68 717.92 C 908.98 717.6 884.66 716.9 874.22 690.68 Z" fill="url(#gold)" stroke="#77531D" stroke-width="1" stroke-linejoin="round" /><path d="M 839.79 746.87 C 867.89 744.26 879.55 765.61 888.33 782.14 C 869.9 778.9 845.99 774.41 839.79 746.87 Z" fill="url(#gold)" stroke="#77531D" stroke-width="1" stroke-linejoin="round" /><path d="M 796.98 796.98 C 825.15 798.81 833.33 821.72 839.41 839.41 C 821.72 833.33 798.81 825.15 796.98 796.98 Z" fill="url(#gold)" stroke="#77531D" stroke-width="1" stroke-linejoin="round" /><path d="M 746.87 839.79 C 774.41 845.99 778.9 869.9 782.14 888.33 C 765.61 879.55 744.26 867.89 746.87 839.79 Z" fill="url(#gold)" stroke="#77531D" stroke-width="1" stroke-linejoin="round" /><path d="M 690.68 874.22 C 716.9 884.66 717.6 908.98 717.92 927.68 C 702.97 916.43 683.71 901.58 690.68 874.22 Z" fill="url(#gold)" stroke="#77531D" stroke-width="1" stroke-linejoin="round" /><path d="M 629.79 899.44 C 654.06 913.86 650.94 937.98 648.33 956.51 C 635.32 943.05 618.62 925.37 629.79 899.44 Z" fill="url(#gold)" stroke="#77531D" stroke-width="1" stroke-linejoin="round" /><path d="M 565.7 914.83 C 587.42 932.86 580.57 956.2 575.09 974.09 C 564.35 958.77 550.62 938.69 565.7 914.83 Z" fill="url(#gold)" stroke="#77531D" stroke-width="1" stroke-linejoin="round" /><path d="M 500 920 C 518.63 941.21 508.21 963.19 500 980 C 491.79 963.19 481.37 941.21 500 920 Z" fill="url(#gold)" stroke="#77531D" stroke-width="1" stroke-linejoin="round" /><path d="M 434.3 914.83 C 449.38 938.69 435.65 958.77 424.91 974.09 C 419.43 956.2 412.58 932.86 434.3 914.83 Z" fill="url(#gold)" stroke="#77531D" stroke-width="1" stroke-linejoin="round" /><path d="M 370.21 899.44 C 381.38 925.37 364.68 943.05 351.67 956.51 C 349.06 937.98 345.94 913.86 370.21 899.44 Z" fill="url(#gold)" stroke="#77531D" stroke-width="1" stroke-linejoin="round" /><path d="M 309.32 874.22 C 316.29 901.58 297.03 916.43 282.08 927.68 C 282.4 908.98 283.1 884.66 309.32 874.22 Z" fill="url(#gold)" stroke="#77531D" stroke-width="1" stroke-linejoin="round" /><path d="M 253.13 839.79 C 255.74 867.89 234.39 879.55 217.86 888.33 C 221.1 869.9 225.59 845.99 253.13 839.79 Z" fill="url(#gold)" stroke="#77531D" stroke-width="1" stroke-linejoin="round" /><path d="M 203.02 796.98 C 201.19 825.15 178.28 833.33 160.59 839.41 C 166.67 821.72 174.85 798.81 203.02 796.98 Z" fill="url(#gold)" stroke="#77531D" stroke-width="1" stroke-linejoin="round" /><path d="M 160.21 746.87 C 154.01 774.41 130.1 778.9 111.67 782.14 C 120.45 765.61 132.11 744.26 160.21 746.87 Z" fill="url(#gold)" stroke="#77531D" stroke-width="1" stroke-linejoin="round" /><path d="M 125.78 690.68 C 115.34 716.9 91.02 717.6 72.32 717.92 C 83.57 702.97 98.42 683.71 125.78 690.68 Z" fill="url(#gold)" stroke="#77531D" stroke-width="1" stroke-linejoin="round" /><path d="M 100.56 629.79 C 86.14 654.06 62.02 650.94 43.49 648.33 C 56.95 635.32 74.63 618.62 100.56 629.79 Z" fill="url(#gold)" stroke="#77531D" stroke-width="1" stroke-linejoin="round" /><path d="M 85.17 565.7 C 67.14 587.42 43.8 580.57 25.91 575.09 C 41.23 564.35 61.31 550.62 85.17 565.7 Z" fill="url(#gold)" stroke="#77531D" stroke-width="1" stroke-linejoin="round" /><path d="M 80 500 C 58.79 518.63 36.81 508.21 20 500 C 36.81 491.79 58.79 481.37 80 500 Z" fill="url(#gold)" stroke="#77531D" stroke-width="1" stroke-linejoin="round" /><path d="M 85.17 434.3 C 61.31 449.38 41.23 435.65 25.91 424.91 C 43.8 419.43 67.14 412.58 85.17 434.3 Z" fill="url(#gold)" stroke="#77531D" stroke-width="1" stroke-linejoin="round" /><path d="M 100.56 370.21 C 74.63 381.38 56.95 364.68 43.49 351.67 C 62.02 349.06 86.14 345.94 100.56 370.21 Z" fill="url(#gold)" stroke="#77531D" stroke-width="1" stroke-linejoin="round" /><path d="M 125.78 309.32 C 98.42 316.29 83.57 297.03 72.32 282.08 C 91.02 282.4 115.34 283.1 125.78 309.32 Z" fill="url(#gold)" stroke="#77531D" stroke-width="1" stroke-linejoin="round" /><path d="M 160.21 253.13 C 132.11 255.74 120.45 234.39 111.67 217.86 C 130.1 221.1 154.01 225.59 160.21 253.13 Z" fill="url(#gold)" stroke="#77531D" stroke-width="1" stroke-linejoin="round" /><path d="M 203.02 203.02 C 174.85 201.19 166.67 178.28 160.59 160.59 C 178.28 166.67 201.19 174.85 203.02 203.02 Z" fill="url(#gold)" stroke="#77531D" stroke-width="1" stroke-linejoin="round" /><path d="M 253.13 160.21 C 225.59 154.01 221.1 130.1 217.86 111.67 C 234.39 120.45 255.74 132.11 253.13 160.21 Z" fill="url(#gold)" stroke="#77531D" stroke-width="1" stroke-linejoin="round" /><path d="M 309.32 125.78 C 283.1 115.34 282.4 91.02 282.08 72.32 C 297.03 83.57 316.29 98.42 309.32 125.78 Z" fill="url(#gold)" stroke="#77531D" stroke-width="1" stroke-linejoin="round" /><path d="M 370.21 100.56 C 345.94 86.14 349.06 62.02 351.67 43.49 C 364.68 56.95 381.38 74.63 370.21 100.56 Z" fill="url(#gold)" stroke="#77531D" stroke-width="1" stroke-linejoin="round" /><path d="M 434.3 85.17 C 412.58 67.14 419.43 43.8 424.91 25.91 C 435.65 41.23 449.38 61.31 434.3 85.17 Z" fill="url(#gold)" stroke="#77531D" stroke-width="1" stroke-linejoin="round" /><circle cx="532.17" cy="91.26" r="5" fill="#EEC478" /><circle cx="595.71" cy="101.33" r="5" fill="#EEC478" /><circle cx="656.9" cy="121.21" r="5" fill="#EEC478" /><circle cx="714.22" cy="150.42" r="5" fill="#EEC478" /><circle cx="766.27" cy="188.23" r="5" fill="#EEC478" /><circle cx="811.77" cy="233.73" r="5" fill="#EEC478" /><circle cx="849.58" cy="285.78" r="5" fill="#EEC478" /><circle cx="878.79" cy="343.1" r="5" fill="#EEC478" /><circle cx="898.67" cy="404.29" r="5" fill="#EEC478" /><circle cx="908.74" cy="467.83" r="5" fill="#EEC478" /><circle cx="908.74" cy="532.17" r="5" fill="#EEC478" /><circle cx="898.67" cy="595.71" r="5" fill="#EEC478" /><circle cx="878.79" cy="656.9" r="5" fill="#EEC478" /><circle cx="849.58" cy="714.22" r="5" fill="#EEC478" /><circle cx="811.77" cy="766.27" r="5" fill="#EEC478" /><circle cx="766.27" cy="811.77" r="5" fill="#EEC478" /><circle cx="714.22" cy="849.58" r="5" fill="#EEC478" /><circle cx="656.9" cy="878.79" r="5" fill="#EEC478" /><circle cx="595.71" cy="898.67" r="5" fill="#EEC478" /><circle cx="532.17" cy="908.74" r="5" fill="#EEC478" /><circle cx="467.83" cy="908.74" r="5" fill="#EEC478" /><circle cx="404.29" cy="898.67" r="5" fill="#EEC478" /><circle cx="343.1" cy="878.79" r="5" fill="#EEC478" /><circle cx="285.78" cy="849.58" r="5" fill="#EEC478" /><circle cx="233.73" cy="811.77" r="5" fill="#EEC478" /><circle cx="188.23" cy="766.27" r="5" fill="#EEC478" /><circle cx="150.42" cy="714.22" r="5" fill="#EEC478" /><circle cx="121.21" cy="656.9" r="5" fill="#EEC478" /><circle cx="101.33" cy="595.71" r="5" fill="#EEC478" /><circle cx="91.26" cy="532.17" r="5" fill="#EEC478" /><circle cx="91.26" cy="467.83" r="5" fill="#EEC478" /><circle cx="101.33" cy="404.29" r="5" fill="#EEC478" /><circle cx="121.21" cy="343.1" r="5" fill="#EEC478" /><circle cx="150.42" cy="285.78" r="5" fill="#EEC478" /><circle cx="188.23" cy="233.73" r="5" fill="#EEC478" /><circle cx="233.73" cy="188.23" r="5" fill="#EEC478" /><circle cx="285.78" cy="150.42" r="5" fill="#EEC478" /><circle cx="343.1" cy="121.21" r="5" fill="#EEC478" /><circle cx="404.29" cy="101.33" r="5" fill="#EEC478" /><circle cx="467.83" cy="91.26" r="5" fill="#EEC478" /><circle cx="500" cy="500" r="400" fill="none" stroke="#BC8E3C" stroke-width="3.4" /><path d="M 500 254 C 450.73 207.12 475.51 150.76 500 104 C 524.49 150.76 549.27 207.12 500 254 Z" fill="url(#gold)" stroke="#77531D" stroke-width="1.7" stroke-linejoin="round" /><path d="M 576.02 266.04 C 543.65 206.22 584.63 160.28 622.37 123.38 C 631.21 175.42 637.37 236.68 576.02 266.04 Z" fill="url(#gold)" stroke="#77531D" stroke-width="1.7" stroke-linejoin="round" /><path d="M 644.6 300.98 C 632.29 234.09 685.47 203.06 732.76 179.63 C 725.09 231.85 712.01 292.01 644.6 300.98 Z" fill="url(#gold)" stroke="#77531D" stroke-width="1.7" stroke-linejoin="round" /><path d="M 699.02 355.4 C 707.99 287.99 768.15 274.91 820.37 267.24 C 796.94 314.53 765.91 367.71 699.02 355.4 Z" fill="url(#gold)" stroke="#77531D" stroke-width="1.7" stroke-linejoin="round" /><path d="M 733.96 423.98 C 763.32 362.63 824.58 368.79 876.62 377.63 C 839.72 415.37 793.78 456.35 733.96 423.98 Z" fill="url(#gold)" stroke="#77531D" stroke-width="1.7" stroke-linejoin="round" /><path d="M 746 500 C 792.88 450.73 849.24 475.51 896 500 C 849.24 524.49 792.88 549.27 746 500 Z" fill="url(#gold)" stroke="#77531D" stroke-width="1.7" stroke-linejoin="round" /><path d="M 733.96 576.02 C 793.78 543.65 839.72 584.63 876.62 622.37 C 824.58 631.21 763.32 637.37 733.96 576.02 Z" fill="url(#gold)" stroke="#77531D" stroke-width="1.7" stroke-linejoin="round" /><path d="M 699.02 644.6 C 765.91 632.29 796.94 685.47 820.37 732.76 C 768.15 725.09 707.99 712.01 699.02 644.6 Z" fill="url(#gold)" stroke="#77531D" stroke-width="1.7" stroke-linejoin="round" /><path d="M 644.6 699.02 C 712.01 707.99 725.09 768.15 732.76 820.37 C 685.47 796.94 632.29 765.91 644.6 699.02 Z" fill="url(#gold)" stroke="#77531D" stroke-width="1.7" stroke-linejoin="round" /><path d="M 576.02 733.96 C 637.37 763.32 631.21 824.58 622.37 876.62 C 584.63 839.72 543.65 793.78 576.02 733.96 Z" fill="url(#gold)" stroke="#77531D" stroke-width="1.7" stroke-linejoin="round" /><path d="M 500 746 C 549.27 792.88 524.49 849.24 500 896 C 475.51 849.24 450.73 792.88 500 746 Z" fill="url(#gold)" stroke="#77531D" stroke-width="1.7" stroke-linejoin="round" /><path d="M 423.98 733.96 C 456.35 793.78 415.37 839.72 377.63 876.62 C 368.79 824.58 362.63 763.32 423.98 733.96 Z" fill="url(#gold)" stroke="#77531D" stroke-width="1.7" stroke-linejoin="round" /><path d="M 355.4 699.02 C 367.71 765.91 314.53 796.94 267.24 820.37 C 274.91 768.15 287.99 707.99 355.4 699.02 Z" fill="url(#gold)" stroke="#77531D" stroke-width="1.7" stroke-linejoin="round" /><path d="M 300.98 644.6 C 292.01 712.01 231.85 725.09 179.63 732.76 C 203.06 685.47 234.09 632.29 300.98 644.6 Z" fill="url(#gold)" stroke="#77531D" stroke-width="1.7" stroke-linejoin="round" /><path d="M 266.04 576.02 C 236.68 637.37 175.42 631.21 123.38 622.37 C 160.28 584.63 206.22 543.65 266.04 576.02 Z" fill="url(#gold)" stroke="#77531D" stroke-width="1.7" stroke-linejoin="round" /><path d="M 254 500 C 207.12 549.27 150.76 524.49 104 500 C 150.76 475.51 207.12 450.73 254 500 Z" fill="url(#gold)" stroke="#77531D" stroke-width="1.7" stroke-linejoin="round" /><path d="M 266.04 423.98 C 206.22 456.35 160.28 415.37 123.38 377.63 C 175.42 368.79 236.68 362.63 266.04 423.98 Z" fill="url(#gold)" stroke="#77531D" stroke-width="1.7" stroke-linejoin="round" /><path d="M 300.98 355.4 C 234.09 367.71 203.06 314.53 179.63 267.24 C 231.85 274.91 292.01 287.99 300.98 355.4 Z" fill="url(#gold)" stroke="#77531D" stroke-width="1.7" stroke-linejoin="round" /><path d="M 355.4 300.98 C 287.99 292.01 274.91 231.85 267.24 179.63 C 314.53 203.06 367.71 234.09 355.4 300.98 Z" fill="url(#gold)" stroke="#77531D" stroke-width="1.7" stroke-linejoin="round" /><path d="M 423.98 266.04 C 362.63 236.68 368.79 175.42 377.63 123.38 C 415.37 160.28 456.35 206.22 423.98 266.04 Z" fill="url(#gold)" stroke="#77531D" stroke-width="1.7" stroke-linejoin="round" /><path d="M 500 230 C 469.8 196.14 485.77 158.12 500 126 C 514.23 158.12 530.2 196.14 500 230 Z" fill="url(#accent)" /><path d="M 583.43 243.21 C 565.18 201.68 592.11 170.46 615.57 144.3 C 619.18 179.25 622.62 220.34 583.43 243.21 Z" fill="url(#accent)" /><path d="M 658.7 281.57 C 654.18 236.42 689.44 215.05 719.83 197.43 C 712.47 231.78 703.04 271.92 658.7 281.57 Z" fill="url(#accent)" /><path d="M 718.43 341.3 C 728.08 296.96 768.22 287.53 802.57 280.17 C 784.95 310.56 763.58 345.82 718.43 341.3 Z" fill="url(#accent)" /><path d="M 756.79 416.57 C 779.66 377.38 820.75 380.82 855.7 384.43 C 829.54 407.89 798.32 434.82 756.79 416.57 Z" fill="url(#accent)" /><path d="M 770 500 C 803.86 469.8 841.88 485.77 874 500 C 841.88 514.23 803.86 530.2 770 500 Z" fill="url(#accent)" /><path d="M 756.79 583.43 C 798.32 565.18 829.54 592.11 855.7 615.57 C 820.75 619.18 779.66 622.62 756.79 583.43 Z" fill="url(#accent)" /><path d="M 718.43 658.7 C 763.58 654.18 784.95 689.44 802.57 719.83 C 768.22 712.47 728.08 703.04 718.43 658.7 Z" fill="url(#accent)" /><path d="M 658.7 718.43 C 703.04 728.08 712.47 768.22 719.83 802.57 C 689.44 784.95 654.18 763.58 658.7 718.43 Z" fill="url(#accent)" /><path d="M 583.43 756.79 C 622.62 779.66 619.18 820.75 615.57 855.7 C 592.11 829.54 565.18 798.32 583.43 756.79 Z" fill="url(#accent)" /><path d="M 500 770 C 530.2 803.86 514.23 841.88 500 874 C 485.77 841.88 469.8 803.86 500 770 Z" fill="url(#accent)" /><path d="M 416.57 756.79 C 434.82 798.32 407.89 829.54 384.43 855.7 C 380.82 820.75 377.38 779.66 416.57 756.79 Z" fill="url(#accent)" /><path d="M 341.3 718.43 C 345.82 763.58 310.56 784.95 280.17 802.57 C 287.53 768.22 296.96 728.08 341.3 718.43 Z" fill="url(#accent)" /><path d="M 281.57 658.7 C 271.92 703.04 231.78 712.47 197.43 719.83 C 215.05 689.44 236.42 654.18 281.57 658.7 Z" fill="url(#accent)" /><path d="M 243.21 583.43 C 220.34 622.62 179.25 619.18 144.3 615.57 C 170.46 592.11 201.68 565.18 243.21 583.43 Z" fill="url(#accent)" /><path d="M 230 500 C 196.14 530.2 158.12 514.23 126 500 C 158.12 485.77 196.14 469.8 230 500 Z" fill="url(#accent)" /><path d="M 243.21 416.57 C 201.68 434.82 170.46 407.89 144.3 384.43 C 179.25 380.82 220.34 377.38 243.21 416.57 Z" fill="url(#accent)" /><path d="M 281.57 341.3 C 236.42 345.82 215.05 310.56 197.43 280.17 C 231.78 287.53 271.92 296.96 281.57 341.3 Z" fill="url(#accent)" /><path d="M 341.3 281.57 C 296.96 271.92 287.53 231.78 280.17 197.43 C 310.56 215.05 345.82 236.42 341.3 281.57 Z" fill="url(#accent)" /><path d="M 416.57 243.21 C 377.38 220.34 380.82 179.25 384.43 144.3 C 407.89 170.46 434.82 201.68 416.57 243.21 Z" fill="url(#accent)" /><path d="M 500 218 C 486.54 192.45 493.85 165.31 500 142 C 506.15 165.31 513.46 192.45 500 218 Z" fill="url(#goldHi)" /><path d="M 587.14 231.8 C 582.24 203.35 597.58 179.79 610.63 159.52 C 609.27 183.59 607.83 211.66 587.14 231.8 Z" fill="url(#goldHi)" /><path d="M 665.76 271.86 C 669.89 243.28 691.75 225.62 710.43 210.37 C 701.7 232.84 691.66 259.1 665.76 271.86 Z" fill="url(#goldHi)" /><path d="M 728.14 334.24 C 740.9 308.34 767.16 298.3 789.63 289.57 C 774.38 308.25 756.72 330.11 728.14 334.24 Z" fill="url(#goldHi)" /><path d="M 768.2 412.86 C 788.34 392.17 816.41 390.73 840.48 389.37 C 820.21 402.42 796.65 417.76 768.2 412.86 Z" fill="url(#goldHi)" /><path d="M 782 500 C 807.55 486.54 834.69 493.85 858 500 C 834.69 506.15 807.55 513.46 782 500 Z" fill="url(#goldHi)" /><path d="M 768.2 587.14 C 796.65 582.24 820.21 597.58 840.48 610.63 C 816.41 609.27 788.34 607.83 768.2 587.14 Z" fill="url(#goldHi)" /><path d="M 728.14 665.76 C 756.72 669.89 774.38 691.75 789.63 710.43 C 767.16 701.7 740.9 691.66 728.14 665.76 Z" fill="url(#goldHi)" /><path d="M 665.76 728.14 C 691.66 740.9 701.7 767.16 710.43 789.63 C 691.75 774.38 669.89 756.72 665.76 728.14 Z" fill="url(#goldHi)" /><path d="M 587.14 768.2 C 607.83 788.34 609.27 816.41 610.63 840.48 C 597.58 820.21 582.24 796.65 587.14 768.2 Z" fill="url(#goldHi)" /><path d="M 500 782 C 513.46 807.55 506.15 834.69 500 858 C 493.85 834.69 486.54 807.55 500 782 Z" fill="url(#goldHi)" /><path d="M 412.86 768.2 C 417.76 796.65 402.42 820.21 389.37 840.48 C 390.73 816.41 392.17 788.34 412.86 768.2 Z" fill="url(#goldHi)" /><path d="M 334.24 728.14 C 330.11 756.72 308.25 774.38 289.57 789.63 C 298.3 767.16 308.34 740.9 334.24 728.14 Z" fill="url(#goldHi)" /><path d="M 271.86 665.76 C 259.1 691.66 232.84 701.7 210.37 710.43 C 225.62 691.75 243.28 669.89 271.86 665.76 Z" fill="url(#goldHi)" /><path d="M 231.8 587.14 C 211.66 607.83 183.59 609.27 159.52 610.63 C 179.79 597.58 203.35 582.24 231.8 587.14 Z" fill="url(#goldHi)" /><path d="M 218 500 C 192.45 513.46 165.31 506.15 142 500 C 165.31 493.85 192.45 486.54 218 500 Z" fill="url(#goldHi)" /><path d="M 231.8 412.86 C 203.35 417.76 179.79 402.42 159.52 389.37 C 183.59 390.73 211.66 392.17 231.8 412.86 Z" fill="url(#goldHi)" /><path d="M 271.86 334.24 C 243.28 330.11 225.62 308.25 210.37 289.57 C 232.84 298.3 259.1 308.34 271.86 334.24 Z" fill="url(#goldHi)" /><path d="M 334.24 271.86 C 308.34 259.1 298.3 232.84 289.57 210.37 C 308.25 225.62 330.11 243.28 334.24 271.86 Z" fill="url(#goldHi)" /><path d="M 412.86 231.8 C 392.17 211.66 390.73 183.59 389.37 159.52 C 402.42 179.79 417.76 203.35 412.86 231.8 Z" fill="url(#goldHi)" /><path d="M 533.79 286.66 C 500.32 248 525.78 219.48 547.87 197.77 C 562.17 225.25 577.57 260.24 533.79 286.66 Z" fill="url(#gold)" stroke="#77531D" stroke-width="1.3" stroke-linejoin="round" /><path d="M 598.06 307.54 C 578.18 260.43 611.2 241.18 638.92 227.35 C 644.03 257.9 647.86 295.94 598.06 307.54 Z" fill="url(#gold)" stroke="#77531D" stroke-width="1.3" stroke-linejoin="round" /><path d="M 652.74 347.26 C 648.38 296.32 685.74 288.21 716.37 283.63 C 711.79 314.26 703.68 351.62 652.74 347.26 Z" fill="url(#gold)" stroke="#77531D" stroke-width="1.3" stroke-linejoin="round" /><path d="M 692.46 401.94 C 704.06 352.14 742.1 355.97 772.65 361.08 C 758.82 388.8 739.57 421.82 692.46 401.94 Z" fill="url(#gold)" stroke="#77531D" stroke-width="1.3" stroke-linejoin="round" /><path d="M 713.34 466.21 C 739.76 422.43 774.75 437.83 802.23 452.13 C 780.52 474.22 752 499.68 713.34 466.21 Z" fill="url(#gold)" stroke="#77531D" stroke-width="1.3" stroke-linejoin="round" /><path d="M 713.34 533.79 C 752 500.32 780.52 525.78 802.23 547.87 C 774.75 562.17 739.76 577.57 713.34 533.79 Z" fill="url(#gold)" stroke="#77531D" stroke-width="1.3" stroke-linejoin="round" /><path d="M 692.46 598.06 C 739.57 578.18 758.82 611.2 772.65 638.92 C 742.1 644.03 704.06 647.86 692.46 598.06 Z" fill="url(#gold)" stroke="#77531D" stroke-width="1.3" stroke-linejoin="round" /><path d="M 652.74 652.74 C 703.68 648.38 711.79 685.74 716.37 716.37 C 685.74 711.79 648.38 703.68 652.74 652.74 Z" fill="url(#gold)" stroke="#77531D" stroke-width="1.3" stroke-linejoin="round" /><path d="M 598.06 692.46 C 647.86 704.06 644.03 742.1 638.92 772.65 C 611.2 758.82 578.18 739.57 598.06 692.46 Z" fill="url(#gold)" stroke="#77531D" stroke-width="1.3" stroke-linejoin="round" /><path d="M 533.79 713.34 C 577.57 739.76 562.17 774.75 547.87 802.23 C 525.78 780.52 500.32 752 533.79 713.34 Z" fill="url(#gold)" stroke="#77531D" stroke-width="1.3" stroke-linejoin="round" /><path d="M 466.21 713.34 C 499.68 752 474.22 780.52 452.13 802.23 C 437.83 774.75 422.43 739.76 466.21 713.34 Z" fill="url(#gold)" stroke="#77531D" stroke-width="1.3" stroke-linejoin="round" /><path d="M 401.94 692.46 C 421.82 739.57 388.8 758.82 361.08 772.65 C 355.97 742.1 352.14 704.06 401.94 692.46 Z" fill="url(#gold)" stroke="#77531D" stroke-width="1.3" stroke-linejoin="round" /><path d="M 347.26 652.74 C 351.62 703.68 314.26 711.79 283.63 716.37 C 288.21 685.74 296.32 648.38 347.26 652.74 Z" fill="url(#gold)" stroke="#77531D" stroke-width="1.3" stroke-linejoin="round" /><path d="M 307.54 598.06 C 295.94 647.86 257.9 644.03 227.35 638.92 C 241.18 611.2 260.43 578.18 307.54 598.06 Z" fill="url(#gold)" stroke="#77531D" stroke-width="1.3" stroke-linejoin="round" /><path d="M 286.66 533.79 C 260.24 577.57 225.25 562.17 197.77 547.87 C 219.48 525.78 248 500.32 286.66 533.79 Z" fill="url(#gold)" stroke="#77531D" stroke-width="1.3" stroke-linejoin="round" /><path d="M 286.66 466.21 C 248 499.68 219.48 474.22 197.77 452.13 C 225.25 437.83 260.24 422.43 286.66 466.21 Z" fill="url(#gold)" stroke="#77531D" stroke-width="1.3" stroke-linejoin="round" /><path d="M 307.54 401.94 C 260.43 421.82 241.18 388.8 227.35 361.08 C 257.9 355.97 295.94 352.14 307.54 401.94 Z" fill="url(#gold)" stroke="#77531D" stroke-width="1.3" stroke-linejoin="round" /><path d="M 347.26 347.26 C 296.32 351.62 288.21 314.26 283.63 283.63 C 314.26 288.21 351.62 296.32 347.26 347.26 Z" fill="url(#gold)" stroke="#77531D" stroke-width="1.3" stroke-linejoin="round" /><path d="M 401.94 307.54 C 352.14 295.94 355.97 257.9 361.08 227.35 C 388.8 241.18 421.82 260.43 401.94 307.54 Z" fill="url(#gold)" stroke="#77531D" stroke-width="1.3" stroke-linejoin="round" /><path d="M 466.21 286.66 C 422.43 260.24 437.83 225.25 452.13 197.77 C 474.22 219.48 499.68 248 466.21 286.66 Z" fill="url(#gold)" stroke="#77531D" stroke-width="1.3" stroke-linejoin="round" /><circle cx="536.61" cy="268.88" r="5.4" fill="#FFEDBA" /><circle cx="606.23" cy="291.5" r="5.4" fill="#FFEDBA" /><circle cx="665.46" cy="334.54" r="5.4" fill="#FFEDBA" /><circle cx="708.5" cy="393.77" r="5.4" fill="#FFEDBA" /><circle cx="731.12" cy="463.39" r="5.4" fill="#FFEDBA" /><circle cx="731.12" cy="536.61" r="5.4" fill="#FFEDBA" /><circle cx="708.5" cy="606.23" r="5.4" fill="#FFEDBA" /><circle cx="665.46" cy="665.46" r="5.4" fill="#FFEDBA" /><circle cx="606.23" cy="708.5" r="5.4" fill="#FFEDBA" /><circle cx="536.61" cy="731.12" r="5.4" fill="#FFEDBA" /><circle cx="463.39" cy="731.12" r="5.4" fill="#FFEDBA" /><circle cx="393.77" cy="708.5" r="5.4" fill="#FFEDBA" /><circle cx="334.54" cy="665.46" r="5.4" fill="#FFEDBA" /><circle cx="291.5" cy="606.23" r="5.4" fill="#FFEDBA" /><circle cx="268.88" cy="536.61" r="5.4" fill="#FFEDBA" /><circle cx="268.88" cy="463.39" r="5.4" fill="#FFEDBA" /><circle cx="291.5" cy="393.77" r="5.4" fill="#FFEDBA" /><circle cx="334.54" cy="334.54" r="5.4" fill="#FFEDBA" /><circle cx="393.77" cy="291.5" r="5.4" fill="#FFEDBA" /><circle cx="463.39" cy="268.88" r="5.4" fill="#FFEDBA" /><circle cx="500" cy="500" r="200" fill="none" stroke="#EEC478" stroke-width="4.4" /><path fill-rule="evenodd" fill="url(#accent)"  d="M 500 304 A 196 196 0 1 1 500 696 A 196 196 0 1 1 500 304 Z M 500 326 A 174 174 0 1 0 500 674 A 174 174 0 1 0 500 326 Z"/><path d="M 480.69 325.06 C 484.62 304.6 515.38 304.6 519.31 325.06" fill="none" stroke="#EEC478" stroke-width="3.2" stroke-linecap="round" opacity="1"/><path d="M 526.62 326.03 C 535.72 307.28 565.43 315.24 563.93 336.02" fill="none" stroke="#EEC478" stroke-width="3.2" stroke-linecap="round" opacity="1"/><path d="M 570.74 338.84 C 584.38 323.09 611.02 338.47 604.19 358.16" fill="none" stroke="#EEC478" stroke-width="3.2" stroke-linecap="round" opacity="1"/><path d="M 610.04 362.64 C 627.29 350.96 649.04 372.71 637.36 389.96" fill="none" stroke="#EEC478" stroke-width="3.2" stroke-linecap="round" opacity="1"/><path d="M 641.84 395.81 C 661.53 388.98 676.91 415.62 661.16 429.26" fill="none" stroke="#EEC478" stroke-width="3.2" stroke-linecap="round" opacity="1"/><path d="M 663.98 436.07 C 684.76 434.57 692.72 464.28 673.97 473.38" fill="none" stroke="#EEC478" stroke-width="3.2" stroke-linecap="round" opacity="1"/><path d="M 674.94 480.69 C 695.4 484.62 695.4 515.38 674.94 519.31" fill="none" stroke="#EEC478" stroke-width="3.2" stroke-linecap="round" opacity="1"/><path d="M 673.97 526.62 C 692.72 535.72 684.76 565.43 663.98 563.93" fill="none" stroke="#EEC478" stroke-width="3.2" stroke-linecap="round" opacity="1"/><path d="M 661.16 570.74 C 676.91 584.38 661.53 611.02 641.84 604.19" fill="none" stroke="#EEC478" stroke-width="3.2" stroke-linecap="round" opacity="1"/><path d="M 637.36 610.04 C 649.04 627.29 627.29 649.04 610.04 637.36" fill="none" stroke="#EEC478" stroke-width="3.2" stroke-linecap="round" opacity="1"/><path d="M 604.19 641.84 C 611.02 661.53 584.38 676.91 570.74 661.16" fill="none" stroke="#EEC478" stroke-width="3.2" stroke-linecap="round" opacity="1"/><path d="M 563.93 663.98 C 565.43 684.76 535.72 692.72 526.62 673.97" fill="none" stroke="#EEC478" stroke-width="3.2" stroke-linecap="round" opacity="1"/><path d="M 519.31 674.94 C 515.38 695.4 484.62 695.4 480.69 674.94" fill="none" stroke="#EEC478" stroke-width="3.2" stroke-linecap="round" opacity="1"/><path d="M 473.38 673.97 C 464.28 692.72 434.57 684.76 436.07 663.98" fill="none" stroke="#EEC478" stroke-width="3.2" stroke-linecap="round" opacity="1"/><path d="M 429.26 661.16 C 415.62 676.91 388.98 661.53 395.81 641.84" fill="none" stroke="#EEC478" stroke-width="3.2" stroke-linecap="round" opacity="1"/><path d="M 389.96 637.36 C 372.71 649.04 350.96 627.29 362.64 610.04" fill="none" stroke="#EEC478" stroke-width="3.2" stroke-linecap="round" opacity="1"/><path d="M 358.16 604.19 C 338.47 611.02 323.09 584.38 338.84 570.74" fill="none" stroke="#EEC478" stroke-width="3.2" stroke-linecap="round" opacity="1"/><path d="M 336.02 563.93 C 315.24 565.43 307.28 535.72 326.03 526.62" fill="none" stroke="#EEC478" stroke-width="3.2" stroke-linecap="round" opacity="1"/><path d="M 325.06 519.31 C 304.6 515.38 304.6 484.62 325.06 480.69" fill="none" stroke="#EEC478" stroke-width="3.2" stroke-linecap="round" opacity="1"/><path d="M 326.03 473.38 C 307.28 464.28 315.24 434.57 336.02 436.07" fill="none" stroke="#EEC478" stroke-width="3.2" stroke-linecap="round" opacity="1"/><path d="M 338.84 429.26 C 323.09 415.62 338.47 388.98 358.16 395.81" fill="none" stroke="#EEC478" stroke-width="3.2" stroke-linecap="round" opacity="1"/><path d="M 362.64 389.96 C 350.96 372.71 372.71 350.96 389.96 362.64" fill="none" stroke="#EEC478" stroke-width="3.2" stroke-linecap="round" opacity="1"/><path d="M 395.81 358.16 C 388.98 338.47 415.62 323.09 429.26 338.84" fill="none" stroke="#EEC478" stroke-width="3.2" stroke-linecap="round" opacity="1"/><path d="M 436.07 336.02 C 434.57 315.24 464.28 307.28 473.38 326.03" fill="none" stroke="#EEC478" stroke-width="3.2" stroke-linecap="round" opacity="1"/><path d="M 513.66 431.35 C 484.99 389.86 508.06 358.69 532.78 335.23 C 546.63 366.36 556.02 403.99 513.66 431.35 Z" fill="url(#goldHi)" stroke="#77531D" stroke-width="1.3" stroke-linejoin="round" /><path d="M 538.89 441.8 C 528.28 392.5 561.53 372.53 593.34 360.31 C 594.22 394.38 588.5 432.73 538.89 441.8 Z" fill="url(#goldHi)" stroke="#77531D" stroke-width="1.3" stroke-linejoin="round" /><path d="M 558.2 461.11 C 567.27 411.5 605.62 405.78 639.69 406.66 C 627.47 438.47 607.5 471.72 558.2 461.11 Z" fill="url(#goldHi)" stroke="#77531D" stroke-width="1.3" stroke-linejoin="round" /><path d="M 568.65 486.34 C 596.01 443.98 633.64 453.37 664.77 467.22 C 641.31 491.94 610.14 515.01 568.65 486.34 Z" fill="url(#goldHi)" stroke="#77531D" stroke-width="1.3" stroke-linejoin="round" /><path d="M 568.65 513.66 C 610.14 484.99 641.31 508.06 664.77 532.78 C 633.64 546.63 596.01 556.02 568.65 513.66 Z" fill="url(#goldHi)" stroke="#77531D" stroke-width="1.3" stroke-linejoin="round" /><path d="M 558.2 538.89 C 607.5 528.28 627.47 561.53 639.69 593.34 C 605.62 594.22 567.27 588.5 558.2 538.89 Z" fill="url(#goldHi)" stroke="#77531D" stroke-width="1.3" stroke-linejoin="round" /><path d="M 538.89 558.2 C 588.5 567.27 594.22 605.62 593.34 639.69 C 561.53 627.47 528.28 607.5 538.89 558.2 Z" fill="url(#goldHi)" stroke="#77531D" stroke-width="1.3" stroke-linejoin="round" /><path d="M 513.66 568.65 C 556.02 596.01 546.63 633.64 532.78 664.77 C 508.06 641.31 484.99 610.14 513.66 568.65 Z" fill="url(#goldHi)" stroke="#77531D" stroke-width="1.3" stroke-linejoin="round" /><path d="M 486.34 568.65 C 515.01 610.14 491.94 641.31 467.22 664.77 C 453.37 633.64 443.98 596.01 486.34 568.65 Z" fill="url(#goldHi)" stroke="#77531D" stroke-width="1.3" stroke-linejoin="round" /><path d="M 461.11 558.2 C 471.72 607.5 438.47 627.47 406.66 639.69 C 405.78 605.62 411.5 567.27 461.11 558.2 Z" fill="url(#goldHi)" stroke="#77531D" stroke-width="1.3" stroke-linejoin="round" /><path d="M 441.8 538.89 C 432.73 588.5 394.38 594.22 360.31 593.34 C 372.53 561.53 392.5 528.28 441.8 538.89 Z" fill="url(#goldHi)" stroke="#77531D" stroke-width="1.3" stroke-linejoin="round" /><path d="M 431.35 513.66 C 403.99 556.02 366.36 546.63 335.23 532.78 C 358.69 508.06 389.86 484.99 431.35 513.66 Z" fill="url(#goldHi)" stroke="#77531D" stroke-width="1.3" stroke-linejoin="round" /><path d="M 431.35 486.34 C 389.86 515.01 358.69 491.94 335.23 467.22 C 366.36 453.37 403.99 443.98 431.35 486.34 Z" fill="url(#goldHi)" stroke="#77531D" stroke-width="1.3" stroke-linejoin="round" /><path d="M 441.8 461.11 C 392.5 471.72 372.53 438.47 360.31 406.66 C 394.38 405.78 432.73 411.5 441.8 461.11 Z" fill="url(#goldHi)" stroke="#77531D" stroke-width="1.3" stroke-linejoin="round" /><path d="M 461.11 441.8 C 411.5 432.73 405.78 394.38 406.66 360.31 C 438.47 372.53 471.72 392.5 461.11 441.8 Z" fill="url(#goldHi)" stroke="#77531D" stroke-width="1.3" stroke-linejoin="round" /><path d="M 486.34 431.35 C 443.98 403.99 453.37 366.36 467.22 335.23 C 491.94 358.69 515.01 389.86 486.34 431.35 Z" fill="url(#goldHi)" stroke="#77531D" stroke-width="1.3" stroke-linejoin="round" /><path d="M 517.56 411.73 C 502.66 384.83 516.49 367.22 529.26 352.88 C 535.57 371.02 541.61 392.58 517.56 411.73 Z" fill="url(#accent)" /><path d="M 550 425.17 C 546.53 394.62 566.05 383.64 583.34 375.28 C 582.23 394.45 579.56 416.68 550 425.17 Z" fill="url(#accent)" /><path d="M 574.83 450 C 583.32 420.44 605.55 417.77 624.72 416.66 C 616.36 433.95 605.38 453.47 574.83 450 Z" fill="url(#accent)" /><path d="M 588.27 482.44 C 607.42 458.39 628.98 464.43 647.12 470.74 C 632.78 483.51 615.17 497.34 588.27 482.44 Z" fill="url(#accent)" /><path d="M 588.27 517.56 C 615.17 502.66 632.78 516.49 647.12 529.26 C 628.98 535.57 607.42 541.61 588.27 517.56 Z" fill="url(#accent)" /><path d="M 574.83 550 C 605.38 546.53 616.36 566.05 624.72 583.34 C 605.55 582.23 583.32 579.56 574.83 550 Z" fill="url(#accent)" /><path d="M 550 574.83 C 579.56 583.32 582.23 605.55 583.34 624.72 C 566.05 616.36 546.53 605.38 550 574.83 Z" fill="url(#accent)" /><path d="M 517.56 588.27 C 541.61 607.42 535.57 628.98 529.26 647.12 C 516.49 632.78 502.66 615.17 517.56 588.27 Z" fill="url(#accent)" /><path d="M 482.44 588.27 C 497.34 615.17 483.51 632.78 470.74 647.12 C 464.43 628.98 458.39 607.42 482.44 588.27 Z" fill="url(#accent)" /><path d="M 450 574.83 C 453.47 605.38 433.95 616.36 416.66 624.72 C 417.77 605.55 420.44 583.32 450 574.83 Z" fill="url(#accent)" /><path d="M 425.17 550 C 416.68 579.56 394.45 582.23 375.28 583.34 C 383.64 566.05 394.62 546.53 425.17 550 Z" fill="url(#accent)" /><path d="M 411.73 517.56 C 392.58 541.61 371.02 535.57 352.88 529.26 C 367.22 516.49 384.83 502.66 411.73 517.56 Z" fill="url(#accent)" /><path d="M 411.73 482.44 C 384.83 497.34 367.22 483.51 352.88 470.74 C 371.02 464.43 392.58 458.39 411.73 482.44 Z" fill="url(#accent)" /><path d="M 425.17 450 C 394.62 453.47 383.64 433.95 375.28 416.66 C 394.45 417.77 416.68 420.44 425.17 450 Z" fill="url(#accent)" /><path d="M 450 425.17 C 420.44 416.68 417.77 394.45 416.66 375.28 C 433.95 383.64 453.47 394.62 450 425.17 Z" fill="url(#accent)" /><path d="M 482.44 411.73 C 458.39 392.58 464.43 371.02 470.74 352.88 C 483.51 367.22 497.34 384.83 482.44 411.73 Z" fill="url(#accent)" /><circle cx="500" cy="500" r="70" fill="url(#accent)"/><circle cx="500" cy="442" r="5" fill="#EEC478" /><circle cx="522.2" cy="446.41" r="5" fill="#EEC478" /><circle cx="541.01" cy="458.99" r="5" fill="#EEC478" /><circle cx="553.59" cy="477.8" r="5" fill="#EEC478" /><circle cx="558" cy="500" r="5" fill="#EEC478" /><circle cx="553.59" cy="522.2" r="5" fill="#EEC478" /><circle cx="541.01" cy="541.01" r="5" fill="#EEC478" /><circle cx="522.2" cy="553.59" r="5" fill="#EEC478" /><circle cx="500" cy="558" r="5" fill="#EEC478" /><circle cx="477.8" cy="553.59" r="5" fill="#EEC478" /><circle cx="458.99" cy="541.01" r="5" fill="#EEC478" /><circle cx="446.41" cy="522.2" r="5" fill="#EEC478" /><circle cx="442" cy="500" r="5" fill="#EEC478" /><circle cx="446.41" cy="477.8" r="5" fill="#EEC478" /><circle cx="458.99" cy="458.99" r="5" fill="#EEC478" /><circle cx="477.8" cy="446.41" r="5" fill="#EEC478" /><circle cx="500" cy="500" r="24" fill="url(#gold)"/><circle cx="500" cy="500" r="9" fill="#FFFBEC"/><circle cx="500" cy="500" r="240" fill="url(#lamp)" opacity=".34"/></svg>