<svg xmlns="http://www.w3.org/2000/svg" viewBox="0 0 1000 1000" width="1000" height="1000" role="img" aria-label="Lotus Chakra frame"><defs>
 <radialGradient id="plate" gradientUnits="userSpaceOnUse" cx="500" cy="430" r="620">
  <stop offset="0" stop-color="#48300F"/><stop offset=".62" stop-color="#241704"/>
  <stop offset="1" stop-color="#0D0702"/></radialGradient>
 <radialGradient id="gold" gradientUnits="userSpaceOnUse" cx="500" cy="405" r="600">
  <stop offset="0" stop-color="#FFEDBA"/><stop offset=".45" stop-color="#EEC478"/>
  <stop offset=".78" stop-color="#BC8E3C"/><stop offset="1" stop-color="#77531D"/></radialGradient>
 <radialGradient id="goldHi" gradientUnits="userSpaceOnUse" cx="500" cy="380" r="560">
  <stop offset="0" stop-color="#FFEDBA"/><stop offset=".55" stop-color="#FFEDBA"/>
  <stop offset="1" stop-color="#BC8E3C"/></radialGradient>
 <radialGradient id="accent" gradientUnits="userSpaceOnUse" cx="500" cy="420" r="600">
  <stop offset="0" stop-color="#5B3C18"/><stop offset="1" stop-color="#241505"/></radialGradient>
 <linearGradient id="wood" x1=".1" y1="0" x2=".72" y2="1">
  <stop offset="0" stop-color="#6E4E2C"/><stop offset=".38" stop-color="#4B3118"/>
  <stop offset=".74" stop-color="#33200E"/><stop offset="1" stop-color="#1F1308"/></linearGradient>
 <radialGradient id="lamp" cx="50%" cy="50%" r="50%">
  <stop offset="0" stop-color="#fffdf2" stop-opacity=".95"/>
  <stop offset=".35" stop-color="#FFC864" stop-opacity=".8"/>
  <stop offset="1" stop-color="#FFC864" stop-opacity="0"/></radialGradient>
 <radialGradient id="halo" cx="50%" cy="50%" r="50%">
  <stop offset=".55" stop-color="#FFC864" stop-opacity="0"/>
  <stop offset=".82" stop-color="#FFC864" stop-opacity=".34"/>
  <stop offset=".96" stop-color="#FFC864" stop-opacity=".09"/>
  <stop offset="1" stop-color="#FFC864" stop-opacity="0"/></radialGradient>
 <filter id="bevel" x="-12%" y="-12%" width="124%" height="124%">
  <feGaussianBlur in="SourceAlpha" stdDeviation="2.4" result="b"/>
  <feSpecularLighting in="b" surfaceScale="4.5" specularConstant=".62" specularExponent="17"
   lighting-color="#fff6df" result="s"><fePointLight x="-2200" y="-3600" z="4200"/></feSpecularLighting>
  <feComposite in="s" in2="SourceAlpha" operator="in" result="so"/>
  <feComposite in="SourceGraphic" in2="so" operator="arithmetic" k1="0" k2="1" k3=".9" k4="0"/></filter>
 <filter id="soft" x="-40%" y="-40%" width="180%" height="180%">
  <feGaussianBlur stdDeviation="11"/></filter>
</defs><circle cx="500" cy="62" r="22" fill="url(#gold)" stroke="#77531D" stroke-width="1.6"/><circle cx="604.82" cy="74.73" r="22" fill="url(#gold)" stroke="#77531D" stroke-width="1.6"/><circle cx="703.55" cy="112.17" r="22" fill="url(#gold)" stroke="#77531D" stroke-width="1.6"/><circle cx="790.45" cy="172.15" r="22" fill="url(#gold)" stroke="#77531D" stroke-width="1.6"/><circle cx="860.47" cy="251.19" r="22" fill="url(#gold)" stroke="#77531D" stroke-width="1.6"/><circle cx="909.54" cy="344.68" r="22" fill="url(#gold)" stroke="#77531D" stroke-width="1.6"/><circle cx="934.81" cy="447.2" r="22" fill="url(#gold)" stroke="#77531D" stroke-width="1.6"/><circle cx="934.81" cy="552.8" r="22" fill="url(#gold)" stroke="#77531D" stroke-width="1.6"/><circle cx="909.54" cy="655.32" r="22" fill="url(#gold)" stroke="#77531D" stroke-width="1.6"/><circle cx="860.47" cy="748.81" r="22" fill="url(#gold)" stroke="#77531D" stroke-width="1.6"/><circle cx="790.45" cy="827.85" r="22" fill="url(#gold)" stroke="#77531D" stroke-width="1.6"/><circle cx="703.55" cy="887.83" r="22" fill="url(#gold)" stroke="#77531D" stroke-width="1.6"/><circle cx="604.82" cy="925.27" r="22" fill="url(#gold)" stroke="#77531D" stroke-width="1.6"/><circle cx="500" cy="938" r="22" fill="url(#gold)" stroke="#77531D" stroke-width="1.6"/><circle cx="395.18" cy="925.27" r="22" fill="url(#gold)" stroke="#77531D" stroke-width="1.6"/><circle cx="296.45" cy="887.83" r="22" fill="url(#gold)" stroke="#77531D" stroke-width="1.6"/><circle cx="209.55" cy="827.85" r="22" fill="url(#gold)" stroke="#77531D" stroke-width="1.6"/><circle cx="139.53" cy="748.81" r="22" fill="url(#gold)" stroke="#77531D" stroke-width="1.6"/><circle cx="90.46" cy="655.32" r="22" fill="url(#gold)" stroke="#77531D" stroke-width="1.6"/><circle cx="65.19" cy="552.8" r="22" fill="url(#gold)" stroke="#77531D" stroke-width="1.6"/><circle cx="65.19" cy="447.2" r="22" fill="url(#gold)" stroke="#77531D" stroke-width="1.6"/><circle cx="90.46" cy="344.68" r="22" fill="url(#gold)" stroke="#77531D" stroke-width="1.6"/><circle cx="139.53" cy="251.19" r="22" fill="url(#gold)" stroke="#77531D" stroke-width="1.6"/><circle cx="209.55" cy="172.15" r="22" fill="url(#gold)" stroke="#77531D" stroke-width="1.6"/><circle cx="296.45" cy="112.17" r="22" fill="url(#gold)" stroke="#77531D" stroke-width="1.6"/><circle cx="395.18" cy="74.73" r="22" fill="url(#gold)" stroke="#77531D" stroke-width="1.6"/><path fill-rule="evenodd" fill="url(#wood)"  d="M 500 60 A 440 440 0 1 1 500 940 A 440 440 0 1 1 500 60 Z M 500 144 A 356 356 0 1 0 500 856 A 356 356 0 1 0 500 144 Z"/><circle cx="500" cy="500" r="437" fill="none" stroke="url(#gold)" stroke-width="6" /><circle cx="500" cy="500" r="359" fill="none" stroke="url(#gold)" stroke-width="6" /><circle cx="500" cy="500" r="433" fill="none" stroke="#77531D" stroke-width="2" opacity=".8"/><circle cx="500" cy="500" r="363" fill="none" stroke="#77531D" stroke-width="2" opacity=".8"/><path d="M 445.66 131.99 C 455.68 78.32 544.32 78.32 554.34 131.99" fill="none" stroke="#EEC478" stroke-width="8" stroke-linecap="round" opacity="1"/><path d="M 574.8 135.6 C 602.57 88.59 685.87 118.91 676.93 172.77" fill="none" stroke="#EEC478" stroke-width="8" stroke-linecap="round" opacity="1"/><path d="M 694.92 183.16 C 737.1 148.49 805 205.46 778.18 253.02" fill="none" stroke="#EEC478" stroke-width="8" stroke-linecap="round" opacity="1"/><path d="M 791.53 268.93 C 843.02 250.78 887.34 327.54 845.88 363.06" fill="none" stroke="#EEC478" stroke-width="8" stroke-linecap="round" opacity="1"/><path d="M 852.98 382.58 C 907.57 383.13 922.97 470.42 871.85 489.61" fill="none" stroke="#EEC478" stroke-width="8" stroke-linecap="round" opacity="1"/><path d="M 871.85 510.39 C 922.97 529.58 907.57 616.87 852.98 617.42" fill="none" stroke="#EEC478" stroke-width="8" stroke-linecap="round" opacity="1"/><path d="M 845.88 636.94 C 887.34 672.46 843.02 749.22 791.53 731.07" fill="none" stroke="#EEC478" stroke-width="8" stroke-linecap="round" opacity="1"/><path d="M 778.18 746.98 C 805 794.54 737.1 851.51 694.92 816.84" fill="none" stroke="#EEC478" stroke-width="8" stroke-linecap="round" opacity="1"/><path d="M 676.93 827.23 C 685.87 881.09 602.57 911.41 574.8 864.4" fill="none" stroke="#EEC478" stroke-width="8" stroke-linecap="round" opacity="1"/><path d="M 554.34 868.01 C 544.32 921.68 455.68 921.68 445.66 868.01" fill="none" stroke="#EEC478" stroke-width="8" stroke-linecap="round" opacity="1"/><path d="M 425.2 864.4 C 397.43 911.41 314.13 881.09 323.07 827.23" fill="none" stroke="#EEC478" stroke-width="8" stroke-linecap="round" opacity="1"/><path d="M 305.08 816.84 C 262.9 851.51 195 794.54 221.82 746.98" fill="none" stroke="#EEC478" stroke-width="8" stroke-linecap="round" opacity="1"/><path d="M 208.47 731.07 C 156.98 749.22 112.66 672.46 154.12 636.94" fill="none" stroke="#EEC478" stroke-width="8" stroke-linecap="round" opacity="1"/><path d="M 147.02 617.42 C 92.43 616.87 77.03 529.58 128.15 510.39" fill="none" stroke="#EEC478" stroke-width="8" stroke-linecap="round" opacity="1"/><path d="M 128.15 489.61 C 77.03 470.42 92.43 383.13 147.02 382.58" fill="none" stroke="#EEC478" stroke-width="8" stroke-linecap="round" opacity="1"/><path d="M 154.12 363.06 C 112.66 327.54 156.98 250.78 208.47 268.93" fill="none" stroke="#EEC478" stroke-width="8" stroke-linecap="round" opacity="1"/><path d="M 221.82 253.02 C 195 205.46 262.9 148.49 305.08 183.16" fill="none" stroke="#EEC478" stroke-width="8" stroke-linecap="round" opacity="1"/><path d="M 323.07 172.77 C 314.13 118.91 397.43 88.59 425.2 135.6" fill="none" stroke="#EEC478" stroke-width="8" stroke-linecap="round" opacity="1"/><path d="M 511.78 78.16 C 526.09 126.91 603.09 140.49 633.2 99.57" fill="none" stroke="#BC8E3C" stroke-width="5" stroke-linecap="round" opacity="1"/><path d="M 655.35 107.63 C 652.12 158.33 719.83 197.43 762.12 169.28" fill="none" stroke="#BC8E3C" stroke-width="5" stroke-linecap="round" opacity="1"/><path d="M 780.18 184.43 C 759.8 230.97 810.06 290.86 859.43 278.88" fill="none" stroke="#BC8E3C" stroke-width="5" stroke-linecap="round" opacity="1"/><path d="M 871.21 299.29 C 836.15 336.05 862.89 409.52 913.38 415.15" fill="none" stroke="#BC8E3C" stroke-width="5" stroke-linecap="round" opacity="1"/><path d="M 917.47 438.35 C 871.95 460.91 871.95 539.09 917.47 561.65" fill="none" stroke="#BC8E3C" stroke-width="5" stroke-linecap="round" opacity="1"/><path d="M 913.38 584.85 C 862.89 590.48 836.15 663.95 871.21 700.71" fill="none" stroke="#BC8E3C" stroke-width="5" stroke-linecap="round" opacity="1"/><path d="M 859.43 721.12 C 810.06 709.14 759.8 769.03 780.18 815.57" fill="none" stroke="#BC8E3C" stroke-width="5" stroke-linecap="round" opacity="1"/><path d="M 762.12 830.72 C 719.83 802.57 652.12 841.67 655.35 892.37" fill="none" stroke="#BC8E3C" stroke-width="5" stroke-linecap="round" opacity="1"/><path d="M 633.2 900.43 C 603.09 859.51 526.09 873.09 511.78 921.84" fill="none" stroke="#BC8E3C" stroke-width="5" stroke-linecap="round" opacity="1"/><path d="M 488.22 921.84 C 473.91 873.09 396.91 859.51 366.8 900.43" fill="none" stroke="#BC8E3C" stroke-width="5" stroke-linecap="round" opacity="1"/><path d="M 344.65 892.37 C 347.88 841.67 280.17 802.57 237.88 830.72" fill="none" stroke="#BC8E3C" stroke-width="5" stroke-linecap="round" opacity="1"/><path d="M 219.82 815.57 C 240.2 769.03 189.94 709.14 140.57 721.12" fill="none" stroke="#BC8E3C" stroke-width="5" stroke-linecap="round" opacity="1"/><path d="M 128.79 700.71 C 163.85 663.95 137.11 590.48 86.62 584.85" fill="none" stroke="#BC8E3C" stroke-width="5" stroke-linecap="round" opacity="1"/><path d="M 82.53 561.65 C 128.05 539.09 128.05 460.91 82.53 438.35" fill="none" stroke="#BC8E3C" stroke-width="5" stroke-linecap="round" opacity="1"/><path d="M 86.62 415.15 C 137.11 409.52 163.85 336.05 128.79 299.29" fill="none" stroke="#BC8E3C" stroke-width="5" stroke-linecap="round" opacity="1"/><path d="M 140.57 278.88 C 189.94 290.86 240.2 230.97 219.82 184.43" fill="none" stroke="#BC8E3C" stroke-width="5" stroke-linecap="round" opacity="1"/><path d="M 237.88 169.28 C 280.17 197.43 347.88 158.33 344.65 107.63" fill="none" stroke="#BC8E3C" stroke-width="5" stroke-linecap="round" opacity="1"/><path d="M 366.8 99.57 C 396.91 140.49 473.91 126.91 488.22 78.16" fill="none" stroke="#BC8E3C" stroke-width="5" stroke-linecap="round" opacity="1"/><circle cx="569.11" cy="108.05" r="7" fill="#FFEDBA" /><circle cx="699" cy="155.32" r="7" fill="#FFEDBA" /><circle cx="804.89" cy="244.17" r="7" fill="#FFEDBA" /><circle cx="874" cy="363.88" r="7" fill="#FFEDBA" /><circle cx="898" cy="500" r="7" fill="#FFEDBA" /><circle cx="874" cy="636.12" r="7" fill="#FFEDBA" /><circle cx="804.89" cy="755.83" r="7" fill="#FFEDBA" /><circle cx="699" cy="844.68" r="7" fill="#FFEDBA" /><circle cx="569.11" cy="891.95" r="7" fill="#FFEDBA" /><circle cx="430.89" cy="891.95" r="7" fill="#FFEDBA" /><circle cx="301" cy="844.68" r="7" fill="#FFEDBA" /><circle cx="195.11" cy="755.83" r="7" fill="#FFEDBA" /><circle cx="126" cy="636.12" r="7" fill="#FFEDBA" /><circle cx="102" cy="500" r="7" fill="#FFEDBA" /><circle cx="126" cy="363.88" r="7" fill="#FFEDBA" /><circle cx="195.11" cy="244.17" r="7" fill="#FFEDBA" /><circle cx="301" cy="155.32" r="7" fill="#FFEDBA" /><circle cx="430.89" cy="108.05" r="7" fill="#FFEDBA" /><circle cx="500" cy="500" r="348" fill="none" stroke="#FFC864" stroke-width="54" opacity=".62" filter="url(#soft)"/><circle cx="500" cy="500" r="348" fill="none" stroke="#FFDF9E" stroke-width="22" opacity=".6" filter="url(#soft)"/><circle cx="500" cy="500" r="348" fill="none" stroke="#FFE3A6" stroke-width="10"/><circle cx="500" cy="500" r="348" fill="none" stroke="#FFF6DC" stroke-width="4.5"/><circle cx="500" cy="500" r="348" fill="none" stroke="#FFFDF4" stroke-width="2.2"/></svg>